<svg width="122" height="138" viewBox="0 0 122 138" fill="none" xmlns="http://www.w3.org/2000/svg">
<path d="M55.5 62.125H74.1875C73.8125 68.25 72.125 73.6875 69.125 78.4375C66.1667 83.1875 62.0208 86.8958 56.6875 89.5625C51.3958 92.2292 45.0208 93.5625 37.5625 93.5625C31.7292 93.5625 26.5 92.5625 21.875 90.5625C17.25 88.5208 13.2917 85.6042 10 81.8125C6.75 78.0208 4.27083 73.4375 2.5625 68.0625C0.854167 62.6875 0 56.6667 0 50V43.6875C0 37.0208 0.875 31 2.625 25.625C4.41667 20.2083 6.95833 15.6042 10.25 11.8125C13.5833 8.02083 17.5625 5.10417 22.1875 3.0625C26.8125 1.02083 31.9792 0 37.6875 0C45.2708 0 51.6667 1.375 56.875 4.125C62.125 6.875 66.1875 10.6667 69.0625 15.5C71.9792 20.3333 73.7292 25.8333 74.3125 32H55.5625C55.3542 28.3333 54.625 25.2292 53.375 22.6875C52.125 20.1042 50.2292 18.1667 47.6875 16.875C45.1875 15.5417 41.8542 14.875 37.6875 14.875C34.5625 14.875 31.8333 15.4583 29.5 16.625C27.1667 17.7917 25.2083 19.5625 23.625 21.9375C22.0417 24.3125 20.8542 27.3125 20.0625 30.9375C19.3125 34.5208 18.9375 38.7292 18.9375 43.5625V50C18.9375 54.7083 19.2917 58.8542 20 62.4375C20.7083 65.9792 21.7917 68.9792 23.25 71.4375C24.75 73.8542 26.6667 75.6875 29 76.9375C31.375 78.1458 34.2292 78.75 37.5625 78.75C41.4792 78.75 44.7083 78.125 47.25 76.875C49.7917 75.625 51.7292 73.7708 53.0625 71.3125C54.4375 68.8542 55.25 65.7917 55.5 62.125ZM102.482 112.5C102.482 110.875 102.232 109.417 101.732 108.125C101.274 106.792 100.399 105.583 99.1075 104.5C97.8158 103.375 96.0033 102.271 93.67 101.188C91.3367 100.104 88.3158 98.9792 84.6075 97.8125C80.4825 96.4792 76.5658 94.9792 72.8575 93.3125C69.1908 91.6458 65.9408 89.7083 63.1075 87.5C60.3158 85.25 58.1075 82.6458 56.4825 79.6875C54.8992 76.7292 54.1075 73.2917 54.1075 69.375C54.1075 65.5833 54.9408 62.1458 56.6075 59.0625C58.2742 55.9375 60.6075 53.2708 63.6075 51.0625C66.6075 48.8125 70.1492 47.0833 74.2325 45.875C78.3575 44.6667 82.8783 44.0625 87.795 44.0625C94.5033 44.0625 100.357 45.2708 105.357 47.6875C110.357 50.1042 114.232 53.4167 116.982 57.625C119.774 61.8333 121.17 66.6458 121.17 72.0625H102.545C102.545 69.3958 101.982 67.0625 100.857 65.0625C99.7742 63.0208 98.1075 61.4167 95.8575 60.25C93.6492 59.0833 90.8575 58.5 87.4825 58.5C84.2325 58.5 81.5242 59 79.3575 60C77.1908 60.9583 75.5658 62.2708 74.4825 63.9375C73.3992 65.5625 72.8575 67.3958 72.8575 69.4375C72.8575 70.9792 73.2325 72.375 73.9825 73.625C74.7742 74.875 75.9408 76.0417 77.4825 77.125C79.0242 78.2083 80.92 79.2292 83.17 80.1875C85.42 81.1458 88.0242 82.0833 90.9825 83C95.9408 84.5 100.295 86.1875 104.045 88.0625C107.837 89.9375 111.003 92.0417 113.545 94.375C116.087 96.7083 118.003 99.3542 119.295 102.312C120.587 105.271 121.232 108.625 121.232 112.375C121.232 116.333 120.462 119.875 118.92 123C117.378 126.125 115.149 128.771 112.232 130.938C109.316 133.104 105.837 134.75 101.795 135.875C97.7533 137 93.2325 137.562 88.2325 137.562C83.7325 137.562 79.295 136.979 74.92 135.812C70.545 134.604 66.5658 132.792 62.9825 130.375C59.4408 127.958 56.6075 124.875 54.4825 121.125C52.3575 117.375 51.295 112.938 51.295 107.812H70.1075C70.1075 110.646 70.545 113.042 71.42 115C72.295 116.958 73.5242 118.542 75.1075 119.75C76.7325 120.958 78.6492 121.833 80.8575 122.375C83.1075 122.917 85.5658 123.188 88.2325 123.188C91.4825 123.188 94.1492 122.729 96.2325 121.812C98.3575 120.896 99.92 119.625 100.92 118C101.962 116.375 102.482 114.542 102.482 112.5Z" fill="white"/>
</svg>
